# xmcd
#
# Track frame offsets:
#	150
#	12329
#	25596
#	36848
#	49835
#	62395
#	75805
#	88116
#	101089
#	115468
#	129253
#	142879
#	154317
#	167258
#	179656
#	194037
#	206837
#	219648
#	233324
#	246985
#	260968
#	275293
#	289665
#	302915
#	317634
#
# Disc length: 4410 seconds
#
# Revision: 0
# Processed by: cddbd v1.5.1PL2 Copyright (c) Steve Scherf et al.
# Submitted via: dBpowerAMP V4.0
#
DISCID=61113819
DTITLE=Huambaly - Los 100 Exitos inolvidables
DYEAR=2006
DGENRE=Latin
TTITLE0=A Rivederci Roma (Edit)
TTITLE1=Agustina de Aragon
TTITLE2=Expreso Aereo (air Express)
TTITLE3=Arroz con palito
TTITLE4=Asi soy yo
TTITLE5=Ave Maria Lola
TTITLE6=Ay Mama Ines
TTITLE7=Baila Maracumbe
TTITLE8=Besala
TTITLE9=Cachito
TTITLE10=Calculadora
TTITLE11=Calypso
TTITLE12=Cayetano baila
TTITLE13=Cerca de mi
TTITLE14=Cha Cha Cha Bar
TTITLE15=Cha Cha Cha del Transito
TTITLE16=Cha Cha Cha Chabela
TTITLE17=Cha Cha Cha Dior
TTITLE18=Compadre Pedro Juan
TTITLE19=Concierto para ritmo
TTITLE20=Corazón Caprichoso
TTITLE21=Corazon de Melon
TTITLE22=Cumbara, cumbara
TTITLE23=Cumpai Jose
TTITLE24=Dele Musica maestro
EXTD=EMI Music Chile, 2006, Radio Corazón FM 3637112\nLa más importante orquesta de los años 50
EXTT0=
EXTT1=
EXTT2=
EXTT3=
EXTT4=
EXTT5=
EXTT6=
EXTT7=
EXTT8=
EXTT9=
EXTT10=
EXTT11=
EXTT12=
EXTT13=
EXTT14=
EXTT15=
EXTT16=
EXTT17=
EXTT18=
EXTT19=
EXTT20=
EXTT21=
EXTT22=
EXTT23=
EXTT24=
PLAYORDER=
